<?xml version="1.0" encoding="UTF-8"?>
<svg version="1.1" xmlns="http://www.w3.org/2000/svg" width="500" height="500">
<path d="M0 0 C165 0 330 0 500 0 C500 165 500 330 500 500 C335 500 170 500 0 500 C0 335 0 170 0 0 Z " fill="#000000" transform="translate(0,0)"/>
<path d="M0 0 C6.93 0 13.86 0 21 0 C23.27835065 7.2071919 25.55627255 14.41451905 27.83347702 21.62207317 C28.89133072 24.97021702 29.94935909 28.31830545 31.0078125 31.66625977 C32.22971425 35.53123986 33.45080974 39.3964743 34.671875 43.26171875 C35.04495789 44.44142746 35.41804077 45.62113617 35.8024292 46.83659363 C37.94629283 53.62534521 40.06217017 60.42199995 42.14936829 67.22839355 C43.23333926 70.76028741 44.33356827 74.28679416 45.4375 77.8125 C45.64286377 78.46992188 45.84822754 79.12734375 46.05981445 79.8046875 C47.15301088 83.30291607 48.2521419 86.79915655 49.359375 90.29296875 C49.58181885 90.99768311 49.8042627 91.70239746 50.03344727 92.4284668 C50.6495827 94.37990731 51.26807368 96.33060364 51.88671875 98.28125 C53.04586779 102.15321452 54.01973186 106.07892743 55 110 C48.73 110 42.46 110 36 110 C34.82825175 106.23067719 33.66240428 102.45970385 32.5 98.6875 C32.16613281 97.61564453 31.83226562 96.54378906 31.48828125 95.43945312 C31.17246094 94.41142578 30.85664063 93.38339844 30.53125 92.32421875 C30.23798828 91.37635498 29.94472656 90.42849121 29.64257812 89.4519043 C29 87 29 87 29 84 C16.79 84 4.58 84 -8 84 C-8.99 87.63 -9.98 91.26 -11 95 C-11.87317881 97.74251936 -12.75620796 100.46617542 -13.6875 103.1875 C-14.450625 105.435625 -15.21375 107.68375 -16 110 C-21.94 110 -27.88 110 -34 110 C-32.64207477 103.50972346 -30.94100077 97.23347823 -28.953125 90.91015625 C-28.65944031 89.96675888 -28.36575562 89.02336151 -28.06317139 88.05137634 C-27.44293488 86.06162356 -26.820937 84.07241906 -26.19726562 82.08374023 C-25.26279915 79.10332204 -24.33404086 76.12117403 -23.40625 73.13867188 C-20.34988458 63.33906024 -17.2410655 53.56193862 -13.94024658 43.84156799 C-12.50217969 39.59157016 -11.20089604 35.3248708 -10 31 C-7.85230933 23.27553272 -5.29461612 15.6996489 -2.71435547 8.11132812 C-1.80057306 5.41057957 -0.90161195 2.70483585 0 0 Z " fill="#FAFAFA" transform="translate(176,193)"/>
<path d="M0 0 C3.3 0 6.6 0 10 0 C10.07476562 1.24910156 10.14953125 2.49820313 10.2265625 3.78515625 C12.96780477 42.33481183 28.75653087 78.59376509 57.76757812 104.58349609 C61.69477826 107.93258604 65.79029301 111.01668688 70 114 C70.55091309 114.39380859 71.10182617 114.78761719 71.66943359 115.19335938 C85.4212902 124.88336633 100.63481062 132.08744866 117 136 C118.62421875 136.42732422 118.62421875 136.42732422 120.28125 136.86328125 C130.230954 139.46153316 139.66044912 140.18643939 149.91308594 140.18530273 C152.0985102 140.18747369 154.28341574 140.20562576 156.46875 140.22460938 C193.13209092 140.3735343 228.89884332 124.6671707 255 99 C257.46779434 96.43441428 259.74966856 93.75757828 262 91 C262.7734375 90.06414062 263.546875 89.12828125 264.34375 88.1640625 C285.22370353 62.32781807 293.12383871 32.41767046 297 0 C299.97 0 302.94 0 306 0 C306.49961576 13.29533041 305.69620042 25.19831957 302 38 C301.67854004 39.11737549 301.67854004 39.11737549 301.35058594 40.25732422 C289.24031992 81.23303508 262.06050607 113.64831868 224.84765625 134.18798828 C190.73902612 152.29812342 148.22091312 156.90025495 111.01586914 146.30102539 C85.5924178 138.51018825 64.26314654 125.12608581 45 107 C44.360625 106.42507813 43.72125 105.85015625 43.0625 105.2578125 C24.0389367 87.42322191 9.2782794 60.87151011 3.8125 35.4375 C3.65233398 34.71771973 3.49216797 33.99793945 3.32714844 33.25634766 C2.87110841 31.17351718 2.43293142 29.08773769 2 27 C1.77183594 25.93652344 1.54367188 24.87304688 1.30859375 23.77734375 C-0.22328299 15.81801217 -0.19859114 8.07603982 0 0 Z " fill="#F8F8F8" transform="translate(88,250)"/>
<path d="M0 0 C5.94 0 11.88 0 18 0 C23.76398065 17.62225602 29.13580238 35.34443587 34.38671875 53.125 C34.6027626 53.85652786 34.81880646 54.58805573 35.04139709 55.3417511 C36.16027278 59.13565558 37.27171145 62.93157519 38.37353516 66.73046875 C38.59733353 67.4992334 38.8211319 68.26799805 39.05171204 69.06005859 C39.47553264 70.51680067 39.89737038 71.97412174 40.31681824 73.43212891 C41.36860129 77.04193653 42.5313519 80.53785778 44 84 C44.36351562 82.77667969 44.72703125 81.55335938 45.1015625 80.29296875 C47.64102778 71.77487664 50.21695263 63.27459312 52.9375 54.8125 C55.63221497 46.39440227 58.0232321 37.90265682 60.37890625 29.38427734 C63.10599252 19.54272213 66.03230022 9.77169441 69 0 C75.27 0 81.54 0 88 0 C86.66808776 4.40694844 85.33569621 8.81374694 84.00219727 13.22021484 C83.55108918 14.71134663 83.10023253 16.2025545 82.6496582 17.69384766 C79.49088435 28.14780091 76.27161487 38.58079132 73 49 C72.16586115 51.66641561 71.3329326 54.33320715 70.5 57 C69.29775311 60.84793217 68.09525671 64.69578227 66.890625 68.54296875 C62.56819336 82.35402602 58.28673963 96.17783301 54 110 C47.4 110 40.8 110 34 110 C32.25970396 105.35921056 30.57843415 100.85121958 29.10229492 96.14501953 C28.76151413 95.06253937 28.42073334 93.9800592 28.06962585 92.86477661 C27.71020401 91.71572845 27.35078217 90.5666803 26.98046875 89.3828125 C26.59941483 88.17164764 26.2183609 86.96048279 25.82575989 85.71261597 C24.81554116 82.50116044 23.8070303 79.28918058 22.79962158 76.07684326 C21.00846723 70.36547373 19.21460979 64.6549588 17.41796875 58.9453125 C17.03489059 57.72777283 16.65181244 56.51023315 16.25712585 55.25579834 C13.86335718 47.67097343 11.41849537 40.10642471 8.85783386 32.57620239 C7.01444805 27.14155028 5.41369387 21.6658072 3.87890625 16.13671875 C2.83100122 12.39686212 1.68571644 8.69149618 0.515625 4.98828125 C0 3 0 3 0 0 Z " fill="#FBFBFB" transform="translate(237,193)"/>
<path d="M0 0 C1.9931767 2.98976505 2.80079568 5.2498851 3.8046875 8.671875 C4.13919922 9.80520264 4.47371094 10.93853027 4.81835938 12.10620117 C5.16705078 13.30865479 5.51574219 14.5111084 5.875 15.75 C6.40963867 17.57398315 6.40963867 17.57398315 6.95507812 19.43481445 C9.43177599 27.92610741 11.78988 36.43578499 14 45 C5.09 45 -3.82 45 -13 45 C-10.7489301 33.7446505 -10.7489301 33.7446505 -9.4140625 29.4140625 C-9.12474854 28.46861572 -8.83543457 27.52316895 -8.53735352 26.54907227 C-8.23627686 25.58412842 -7.9352002 24.61918457 -7.625 23.625 C-7.31554443 22.62073975 -7.00608887 21.61647949 -6.68725586 20.58178711 C-4.55366338 13.68877098 -2.36097279 6.81895867 0 0 Z " fill="#070707" transform="translate(186,216)"/>
<path d="M0 0 C4.70498396 2.45960376 9.09549864 4.82627438 11 10 C10.91957234 13.86052755 10.42781397 15.50927221 7.875 18.4375 C5 20 5 20 1.625 20.125 C-2.92087733 18.71421048 -5.76716333 16.44287973 -9 13 C-10.54586876 9.90826248 -10.29359521 7.40570448 -10 4 C-7.24058351 -0.13912474 -4.82968418 -0.91126117 0 0 Z " fill="#060606" transform="translate(119,150)"/>
<path d="M0 0 C4.2191084 2.61182901 6.24531713 5.38241351 8 10 C8.54951871 13.84663094 8.35525386 15.42106778 6.3125 18.75 C3.05284323 21.92155794 0.53226792 23 -4 23 C-5.37021794 20.23682377 -6.71830176 17.46341522 -8.0625 14.6875 C-8.45244141 13.90181641 -8.84238281 13.11613281 -9.24414062 12.30664062 C-9.60830078 11.54931641 -9.97246094 10.79199219 -10.34765625 10.01171875 C-10.68804932 9.31522217 -11.02844238 8.61872559 -11.37915039 7.90112305 C-12 6 -12 6 -11 3 C-7.31426387 0.73829829 -4.33884282 -0.77876666 0 0 Z " fill="#0A0A0A" transform="translate(178,102)"/>
<path d="M0 0 C2.5 1.625 2.5 1.625 4 4 C4.50691424 7.40356706 4.2261981 9.44115763 2.9375 12.625 C-0.61815686 16.98354711 -4.27213476 18.73642734 -9.6875 19.5625 C-13 19 -13 19 -15.5 16.9375 C-17 14 -17 14 -17.25 10.625 C-14.48187324 2.5974324 -8.33984836 -1.5289722 0 0 Z " fill="#060606" transform="translate(368,148)"/>
<path d="M0 0 C2.5 1.4375 2.5 1.4375 4 4 C4.34367016 8.60518018 3.60928788 12.04544899 1.125 15.9375 C-1.77865845 18.75575673 -3.35050681 19.94095516 -7.4375 20.3125 C-11 20 -11 20 -13.4375 19.0625 C-15.62099126 16.18029154 -15.67088071 13.91995818 -15.53125 10.359375 C-14.61754213 6.3014371 -12.07823209 3.67949737 -9 1 C-5.90826248 -0.54586876 -3.40570448 -0.29359521 0 0 Z " fill="#060606" transform="translate(341,121)"/>
<path d="M0 0 C0 0.66 0 1.32 0 2 C-1.98 2 -3.96 2 -6 2 C-6.33 5.3 -6.66 8.6 -7 12 C-5.35 12.66 -3.7 13.32 -2 14 C-2 14.66 -2 15.32 -2 16 C-6.53106114 14.61111631 -10.6147579 12.82221815 -14.8125 10.625 C-16.52373047 9.74714844 -16.52373047 9.74714844 -18.26953125 8.8515625 C-21 7 -21 7 -21.88671875 4.7734375 C-21.92410156 4.18820313 -21.96148437 3.60296875 -22 3 C-14.52058632 1.05789567 -7.74152536 -0.39363688 0 0 Z " fill="#D1D1D1" transform="translate(102,222)"/>
<path d="M0 0 C7.11120489 1.31117661 14.04699943 3.01720516 21 5 C20.67 5.99 20.34 6.98 20 8 C15.85770465 9.30809327 11.86822043 10.05731619 7.5625 10.5625 C4.18905402 10.60573129 4.18905402 10.60573129 3 12 C7.62 13.32 12.24 14.64 17 16 C17 16.66 17 17.32 17 18 C9.64987044 17.42351925 2.98575424 15.28953836 -4 13 C-3.67 11.68 -3.34 10.36 -3 9 C4.425 7.515 4.425 7.515 12 6 C8.04 4.68 4.08 3.36 0 2 C0 1.34 0 0.68 0 0 Z " fill="#D5D5D5" transform="translate(86,201)"/>
<path d="M0 0 C0.99 0 1.98 0 3 0 C3 5.61 3 11.22 3 17 C4.11375 15.185 5.2275 13.37 6.375 11.5 C7.52339649 9.62853906 8.71993203 7.78398614 10 6 C10.66 6 11.32 6 12 6 C11.38903209 8.91687906 10.48685442 11.13415334 8.93359375 13.671875 C8.3293457 14.66767578 8.3293457 14.66767578 7.71289062 15.68359375 C7.29201172 16.36550781 6.87113281 17.04742187 6.4375 17.75 C6.01275391 18.44738281 5.58800781 19.14476563 5.15039062 19.86328125 C4.10489914 21.57835717 3.05306649 23.28956473 2 25 C1.01 24.67 0.02 24.34 -1 24 C-0.505 15.09 -0.505 15.09 0 6 C-2.55075196 10.27356532 -2.55075196 10.27356532 -5.08544922 14.55664062 C-6.0033717 16.07155953 -6.99991024 17.53802139 -8 19 C-8.66 19 -9.32 19 -10 19 C-9.05003199 14.54387578 -6.94073518 11.12665795 -4.625 7.25 C-4.22539062 6.55261719 -3.82578125 5.85523437 -3.4140625 5.13671875 C-2.36291209 3.3698179 -1.18905872 1.67719861 0 0 Z " fill="#EBEBEB" transform="translate(319,108)"/>
<path d="M0 0 C2.31 0.66 4.62 1.32 7 2 C7 2.66 7 3.32 7 4 C6.030625 4.309375 5.06125 4.61875 4.0625 4.9375 C1.15934208 5.69523342 1.15934208 5.69523342 0 7 C-0.50135199 9.37221956 -0.50135199 9.37221956 0 12 C3.20307138 15.03448868 5.55634429 16.93984768 10 17.125 C12.92475328 17.20828603 12.92475328 17.20828603 15 16 C15 13.36 15 10.72 15 8 C13.68 8 12.36 8 11 8 C10.67 8.66 10.34 9.32 10 10 C9.34 10 8.68 10 8 10 C8.66 8.02 9.32 6.04 10 4 C13.38266921 4.2818891 14.81072018 4.83064437 17.375 7.125 C19 10 19 10 19 13.625 C18 17 18 17 16.4375 18.9375 C12.88772321 20.4848386 9.75125898 20.74349277 6 20 C2.43663381 18.33832665 -1.1985622 16.60287561 -3 13 C-3.46537396 6.71745152 -3.46537396 6.71745152 -1.5 3.6875 C-1.005 3.130625 -0.51 2.57375 0 2 C0 1.34 0 0.68 0 0 Z " fill="#E1E1E1" transform="translate(93,181)"/>
<path d="M0 0 C3.14353497 1.17882561 4.02594545 1.91180907 5.5 4.9375 C5.79515545 7.69586183 5.6832508 10.14292533 5.5 12.9375 C4.5 13.9375 4.5 13.9375 1.9375 14 C1.133125 13.979375 0.32875 13.95875 -0.5 13.9375 C-0.17 12.9475 0.16 11.9575 0.5 10.9375 C1.16 10.9375 1.82 10.9375 2.5 10.9375 C2.5 8.9575 2.5 6.9775 2.5 4.9375 C0.025 4.4425 0.025 4.4425 -2.5 3.9375 C-2.69335938 4.63617188 -2.88671875 5.33484375 -3.0859375 6.0546875 C-3.34632813 6.96476563 -3.60671875 7.87484375 -3.875 8.8125 C-4.13023437 9.71742188 -4.38546875 10.62234375 -4.6484375 11.5546875 C-5.5 13.9375 -5.5 13.9375 -7.5 15.9375 C-12.71444527 16.49222822 -12.71444527 16.49222822 -15.1484375 14.7734375 C-16.98990693 12.27201949 -17.0065175 10.32670258 -17.1875 7.25 C-17.25324219 6.25613281 -17.31898438 5.26226562 -17.38671875 4.23828125 C-17.42410156 3.47902344 -17.46148437 2.71976563 -17.5 1.9375 C-15.52 1.9375 -13.54 1.9375 -11.5 1.9375 C-11.83 2.47375 -12.16 3.01 -12.5 3.5625 C-13.72699204 6.4766061 -13.64233286 8.80617708 -13.5 11.9375 C-12.18 12.2675 -10.86 12.5975 -9.5 12.9375 C-9.24605469 12.25042969 -8.99210937 11.56335938 -8.73046875 10.85546875 C-8.21419922 9.50388672 -8.21419922 9.50388672 -7.6875 8.125 C-7.35105469 7.23167969 -7.01460938 6.33835938 -6.66796875 5.41796875 C-5.04681249 1.97504493 -3.97723179 -0.09943079 0 0 Z " fill="#DADADA" transform="translate(397.5,217.0625)"/>
<path d="M0 0 C4.2191084 2.61182901 6.24531713 5.38241351 8 10 C8.54951871 13.84663094 8.35525386 15.42106778 6.3125 18.75 C3.05284323 21.92155794 0.53226792 23 -4 23 C-5.37021794 20.23682377 -6.71830176 17.46341522 -8.0625 14.6875 C-8.45244141 13.90181641 -8.84238281 13.11613281 -9.24414062 12.30664062 C-9.60830078 11.54931641 -9.97246094 10.79199219 -10.34765625 10.01171875 C-10.68804932 9.31522217 -11.02844238 8.61872559 -11.37915039 7.90112305 C-12 6 -12 6 -11 3 C-7.31426387 0.73829829 -4.33884282 -0.77876666 0 0 Z M-9 4 C-8.37954537 8.23322844 -6.89476441 11.52290295 -4.9375 15.3125 C-4.38964844 16.38113281 -3.84179688 17.44976562 -3.27734375 18.55078125 C-2.85582031 19.35902344 -2.43429688 20.16726562 -2 21 C1.74667202 19.3672149 1.74667202 19.3672149 5 17 C5.39769241 12.30722951 5.40445572 9.85557941 3.375 5.5625 C1.19415974 2.79759068 1.19415974 2.79759068 -2 2 C-5.03631467 2 -6.49057831 2.35922428 -9 4 Z " fill="#DCDCDC" transform="translate(178,102)"/>
<path d="M0 0 C4.70498396 2.45960376 9.09549864 4.82627438 11 10 C10.91957234 13.86052755 10.42781397 15.50927221 7.875 18.4375 C5 20 5 20 1.625 20.125 C-2.92087733 18.71421048 -5.76716333 16.44287973 -9 13 C-10.54586876 9.90826248 -10.29359521 7.40570448 -10 4 C-7.24058351 -0.13912474 -4.82968418 -0.91126117 0 0 Z M-8 4 C-8.5946363 7.82266193 -8.33135968 9.49724738 -6.1875 12.75 C-3.22345319 15.79873386 -1.74034264 16.94804613 2.5625 17.25 C6.06397953 17.37198957 6.06397953 17.37198957 8 15 C8.75244501 12.1724011 8.75244501 12.1724011 8 9 C5.14239165 5.43416595 2.10454287 3.33985934 -2.25 2 C-5.21956883 1.74576241 -5.21956883 1.74576241 -8 4 Z " fill="#E3E3E3" transform="translate(119,150)"/>
<path d="M0 0 C2.5 1.625 2.5 1.625 4 4 C4.50691424 7.40356706 4.2261981 9.44115763 2.9375 12.625 C-0.61815686 16.98354711 -4.27213476 18.73642734 -9.6875 19.5625 C-13 19 -13 19 -15.5 16.9375 C-17 14 -17 14 -17.25 10.625 C-14.48187324 2.5974324 -8.33984836 -1.5289722 0 0 Z M-14 8 C-14.33333333 11.5 -14.33333333 11.5 -14 15 C-13.34 15.66 -12.68 16.32 -12 17 C-6.4780399 17 -3.2482225 15.34630008 0.6796875 11.69140625 C2.2772681 9.91905064 2.2772681 9.91905064 2.5625 6.75 C2.23633324 3.86895888 2.23633324 3.86895888 0 2 C-6.14942164 1.1614425 -9.75926498 3.75926498 -14 8 Z " fill="#E0E0E0" transform="translate(368,148)"/>
<path d="M0 0 C2.5 1.6875 2.5 1.6875 4 4 C4.25 6.75 4.25 6.75 4 9 C4.66 9.33 5.32 9.66 6 10 C2.25 13 2.25 13 0 13 C0.08378906 12.36191406 0.16757812 11.72382813 0.25390625 11.06640625 C0.35574219 10.24011719 0.45757812 9.41382813 0.5625 8.5625 C0.66691406 7.73878906 0.77132813 6.91507813 0.87890625 6.06640625 C0.91886719 5.38449219 0.95882813 4.70257813 1 4 C-0.14287386 2.64554633 -0.14287386 2.64554633 -3.1875 2.6875 C-7.83634231 3.06855265 -10.69906105 4.69906105 -14 8 C-14.16666667 11 -14.16666667 11 -14 14 C-12.87465895 15.35618499 -12.87465895 15.35618499 -9.9375 15.0625 C-8.968125 15.041875 -7.99875 15.02125 -7 15 C-7 14.01 -7 13.02 -7 12 C-7 11.34 -7 10.68 -7 10 C-6.34 10 -5.68 10 -5 10 C-4.01 11.98 -3.02 13.96 -2 16 C-6.00937908 18.67291939 -9.28930205 18.69300771 -14 18 C-16.89881596 15.80392731 -16.96429603 14.19280145 -17.625 10.625 C-16.84113698 6.07859448 -15.26679061 4.88843557 -11.7265625 2.1640625 C-7.98285951 -0.35997255 -4.42012485 -0.62895057 0 0 Z " fill="#EBEBEB" transform="translate(379,164)"/>
<path d="M0 0 C4.39450749 0.43945075 8.68330172 1.05572225 13 2 C13 2.66 13 3.32 13 4 C11.54119891 3.85892253 10.08296449 3.71197585 8.625 3.5625 C7.40683594 3.44068359 7.40683594 3.44068359 6.1640625 3.31640625 C4 3 4 3 2 2 C1.67 4.64 1.34 7.28 1 10 C3.64 10.33 6.28 10.66 9 11 C9 11.66 9 12.32 9 13 C6.03 12.67 3.06 12.34 0 12 C-0.33 14.64 -0.66 17.28 -1 20 C2.63 20.33 6.26 20.66 10 21 C10 21.99 10 22.98 10 24 C8.041036 23.69147815 6.08284287 23.3780582 4.125 23.0625 C3.03445313 22.88847656 1.94390625 22.71445313 0.8203125 22.53515625 C-2 22 -2 22 -4 21 C-3.52753292 17.6865079 -3.04590875 14.37441206 -2.5625 11.0625 C-2.36043945 9.64420898 -2.36043945 9.64420898 -2.15429688 8.19726562 C-2.02216797 7.29814453 -1.89003906 6.39902344 -1.75390625 5.47265625 C-1.57323608 4.22367554 -1.57323608 4.22367554 -1.38891602 2.94946289 C-1 1 -1 1 0 0 Z " fill="#D7D7D7" transform="translate(263,89)"/>
<path d="M0 0 C0.66 0 1.32 0 2 0 C1.46599103 3.91606575 0.80330533 6.39338934 -1 10 C1.97 10.99 4.94 11.98 8 13 C8.268125 11.865625 8.53625 10.73125 8.8125 9.5625 C9.204375 8.386875 9.59625 7.21125 10 6 C10.99 5.67 11.98 5.34 13 5 C12.35014905 9.71370756 10.48438608 13.57686444 8.4375 17.8125 C8.10814453 18.50537109 7.77878906 19.19824219 7.43945312 19.91210938 C6.63127749 21.61044948 5.81631623 23.30555769 5 25 C4.34 25 3.68 25 3 25 C3.53980347 21.60694964 4.16550811 18.33796756 5 15 C2.36 14.01 -0.28 13.02 -3 12 C-3.12375 12.763125 -3.2475 13.52625 -3.375 14.3125 C-4 17 -4 17 -6 20 C-6.66 20 -7.32 20 -8 20 C-5.83836487 13.06001352 -3.1063786 6.56882431 0 0 Z " fill="#E3E3E3" transform="translate(301,99)"/>
<path d="M0 0 C2.5 1.4375 2.5 1.4375 4 4 C4.34367016 8.60518018 3.60928788 12.04544899 1.125 15.9375 C-1.77865845 18.75575673 -3.35050681 19.94095516 -7.4375 20.3125 C-11 20 -11 20 -13.4375 19.0625 C-15.62099126 16.18029154 -15.67088071 13.91995818 -15.53125 10.359375 C-14.61754213 6.3014371 -12.07823209 3.67949737 -9 1 C-5.90826248 -0.54586876 -3.40570448 -0.29359521 0 0 Z M-11 6 C-13.44897847 9.67346771 -13.31537716 11.66356399 -13 16 C-11.13104112 18.23633324 -11.13104112 18.23633324 -8.25 18.5625 C-4.06603791 17.83835272 -2.74006533 16.29671822 -0.19921875 13.015625 C1.5807637 10.02386296 2 7.45003886 2 4 C0.13287971 1.72791297 0.13287971 1.72791297 -2.8125 1.625 C-6.72578781 2.0853868 -8.20588581 3.2835001 -11 6 Z " fill="#E6E6E6" transform="translate(341,121)"/>
<path d="M0 0 C-1.12073862 0.83905565 -2.24674547 1.67107831 -3.375 2.5 C-4.00148437 2.9640625 -4.62796875 3.428125 -5.2734375 3.90625 C-7 5 -7 5 -9 5 C-8.01 6.98 -7.02 8.96 -6 11 C-5.236875 10.690625 -4.47375 10.38125 -3.6875 10.0625 C-1.81210323 9.32106407 0.08684652 8.63771783 2 8 C2 8.99 2 9.98 2 11 C-0.5 12.6875 -0.5 12.6875 -3 14 C-2.34 15.65 -1.68 17.3 -1 19 C3.12751449 18.39301257 6.3321148 16.96189209 10 15 C10.33 15.66 10.66 16.32 11 17 C9.42652824 18.035969 7.84078454 19.05331732 6.25 20.0625 C5.36828125 20.63097656 4.4865625 21.19945312 3.578125 21.78515625 C1 23 1 23 -1.01147461 22.78051758 C-3.44854954 21.82393948 -4.05973081 20.95113101 -5.39453125 18.7265625 C-5.79220703 18.0665625 -6.18988281 17.4065625 -6.59960938 16.7265625 C-7.19999023 15.68628906 -7.19999023 15.68628906 -7.8125 14.625 C-8.44188477 13.59632812 -8.44188477 13.59632812 -9.08398438 12.546875 C-10.14607191 10.74815014 -11.08242905 8.87656723 -12 7 C-10.84625061 3.53875184 -10.12298029 3.11687417 -7.125 1.25 C-6.42632812 0.80140625 -5.72765625 0.3528125 -5.0078125 -0.109375 C-3 -1 -3 -1 0 0 Z " fill="#E3E3E3" transform="translate(161,111)"/>
<path d="M0 0 C3.42857143 8.42857143 3.42857143 8.42857143 3 13 C2.34 12.67 1.68 12.34 1 12 C0.3671875 9.71484375 0.3671875 9.71484375 -0.125 6.9375 C-0.29257812 6.01839844 -0.46015625 5.09929687 -0.6328125 4.15234375 C-0.75398438 3.44207031 -0.87515625 2.73179687 -1 2 C-4.465 3.485 -4.465 3.485 -8 5 C-7.67 7.64 -7.34 10.28 -7 13 C-7.66 13 -8.32 13 -9 13 C-9.33 10.36 -9.66 7.72 -10 5 C-12.64 5.66 -15.28 6.32 -18 7 C-17.67 7.886875 -17.34 8.77375 -17 9.6875 C-16.08777857 12.70923347 -15.81669042 14.88373706 -16 18 C-18.96527758 15.5546615 -19.55582214 13.55397653 -20.1875 9.8125 C-20.34605469 8.91144531 -20.50460937 8.01039063 -20.66796875 7.08203125 C-20.77753906 6.39496094 -20.88710938 5.70789063 -21 5 C-18.44013121 4.15774 -15.87760985 3.32601449 -13.3125 2.5 C-12.2306543 2.14228516 -12.2306543 2.14228516 -11.12695312 1.77734375 C-7.30592343 0.55601006 -4.06557944 -0.32075577 0 0 Z " fill="#E4E4E4" transform="translate(396,198)"/>
<path d="M0 0 C4.95 0 9.9 0 15 0 C15 2.64 15 5.28 15 8 C14.34 8 13.68 8 13 8 C13 6.02 13 4.04 13 2 C11.68 2 10.36 2 9 2 C8.67 7.94 8.34 13.88 8 20 C8.99 20 9.98 20 11 20 C11 20.66 11 21.32 11 22 C8.03 22 5.06 22 2 22 C2 21.01 2 20.02 2 19 C3.32 19 4.64 19 6 19 C6 13.39 6 7.78 6 2 C4.68 2 3.36 2 2 2 C2 3.65 2 5.3 2 7 C1.34 7 0.68 7 0 7 C0 4.69 0 2.38 0 0 Z " fill="#DFDFDF" transform="translate(242,88)"/>
<path d="M0 0 C3.375 1.5 3.375 1.5 6 3 C5.67 4.98 5.34 6.96 5 9 C4.34 9 3.68 9 3 9 C2.79375 8.195625 2.5875 7.39125 2.375 6.5625 C1.21429571 3.70048201 1.21429571 3.70048201 -1.9375 3 C-4.94677504 2.71021964 -4.94677504 2.71021964 -6.8125 4.25 C-8.90169987 7.32882086 -9.13676337 10.0136443 -9.125 13.625 C-9.12757813 14.42164062 -9.13015625 15.21828125 -9.1328125 16.0390625 C-9.21570074 18.00353536 -9.21570074 18.00353536 -8 19 C-5.66253478 18.69699525 -3.32914823 18.36141955 -1 18 C-0.01 18 0.98 18 2 18 C-0.22386372 20.73706304 -1.4225847 21.88943111 -4.9375 22.5625 C-9.11736219 21.79477021 -10.52506641 20.42123173 -13 17 C-13.75880821 11.78319355 -12.76062735 8.43672252 -10 4 C-6.95504697 0.01006154 -4.97290557 -0.69620678 0 0 Z " fill="#C7C7C7" transform="translate(290,94)"/>
<path d="M0 0 C1.32 0 2.64 0 4 0 C4 1.98 4 3.96 4 6 C3.1646875 5.2575 3.1646875 5.2575 2.3125 4.5 C-0.41508925 2.73075292 -1.80848491 2.5800638 -5 3 C-7.41942686 4.97987811 -7.41942686 4.97987811 -7.25 8.8125 C-7.1621421 12.52956514 -6.7567286 16.2432714 -4 19 C-2.00041636 19.04080783 0.00045254 19.04254356 2 19 C2.66 17.68 3.32 16.36 4 15 C4.66 15 5.32 15 6 15 C5.25 19.75 5.25 19.75 3 22 C-0.08532717 22.40463307 -2.03723497 22.61747875 -5 22 C-8.5660597 19.25116231 -9.69192754 17.72722594 -10.4765625 13.328125 C-10.72317254 8.52571888 -10.57659452 5.84018058 -7.8125 1.8125 C-4.73790248 -0.16890729 -3.55770193 -0.45611563 0 0 Z " fill="#E8E8E8" transform="translate(214,90)"/>
<path d="M0 0 C3.4468151 1.72340755 3.970055 5.78386247 5.1875 9.25 C5.47302734 10.01441406 5.75855469 10.77882812 6.05273438 11.56640625 C7.52701922 15.72023071 8.50346688 18.65472 7 23 C2.48473802 21.41145659 -1.31517942 19.07705734 -5.3125 16.5 C-5.95767578 16.09652344 -6.60285156 15.69304687 -7.26757812 15.27734375 C-8.88281262 14.24154258 -10.44672883 13.12659452 -12 12 C-12 11.34 -12 10.68 -12 10 C-7.92546771 10.62304741 -5.10460299 12.76532621 -1.75 15.0625 C-0.67234375 15.79597656 0.4053125 16.52945313 1.515625 17.28515625 C2.33546875 17.85105469 3.1553125 18.41695312 4 19 C4 14.28481259 1.78851917 10.34472905 -0.00390625 6.03125 C-1 3 -1 3 0 0 Z " fill="#E8E8E8" transform="translate(144,119)"/>
<path d="M0 0 C0 0.66 0 1.32 0 2 C-0.66 2 -1.32 2 -2 2 C-1.71125 2.89203125 -1.4225 3.7840625 -1.125 4.703125 C-0.75375 5.87359375 -0.3825 7.0440625 0 8.25 C0.37125 9.41015625 0.7425 10.5703125 1.125 11.765625 C2 15 2 15 2 19 C3.32 18.67 4.64 18.34 6 18 C5 21 5 21 2.625 22.1875 C0 23 0 23 -3 23 C-2.67 22.01 -2.34 21.02 -2 20 C-1.34 20 -0.68 20 0 20 C-1.65 14.72 -3.3 9.44 -5 4 C-6.32 4 -7.64 4 -9 4 C-9 3.34 -9 2.68 -9 2 C-5.62902617 0.50178941 -3.79557881 0 0 0 Z " fill="#D8D8D8" transform="translate(195,95)"/>
<path d="M0 0 C0.66 0.66 1.32 1.32 2 2 C-2.29 6.29 -6.58 10.58 -11 15 C-10.01 16.093125 -9.02 17.18625 -8 18.3125 C-5 21.625 -5 21.625 -5 25 C-6.1055189 24.06409496 -7.20935453 23.12620142 -8.3125 22.1875 C-8.92738281 21.66542969 -9.54226563 21.14335937 -10.17578125 20.60546875 C-11.85424679 19.12827531 -13.43882034 17.59960869 -15 16 C-13.40506235 11.7769261 -10.23319314 9.22273196 -6.9375 6.3125 C-6.38255859 5.81427734 -5.82761719 5.31605469 -5.25585938 4.80273438 C-3.84016705 3.53188755 -2.42039183 2.26559214 -1 1 C-0.67 0.67 -0.34 0.34 0 0 Z " fill="#E0E0E0" transform="translate(352,131)"/>
<path d="M0 0 C2.52259061 1.97420135 2.9929808 2.96745642 3.6875 6.1875 C3.790625 7.115625 3.89375 8.04375 4 9 C3.34 8.67 2.68 8.34 2 8 C2 7.34 2 6.68 2 6 C1.01257813 6.433125 0.02515625 6.86625 -0.9921875 7.3125 C-2.28637554 7.87519045 -3.58065093 8.43768005 -4.875 9 C-5.52597656 9.28617188 -6.17695313 9.57234375 -6.84765625 9.8671875 C-11.7734375 12 -11.7734375 12 -14 12 C-14 13.65 -14 15.3 -14 17 C-16.52259061 15.02579865 -16.9929808 14.03254358 -17.6875 10.8125 C-17.790625 9.884375 -17.89375 8.95625 -18 8 C-16.95585937 8.31517578 -16.95585937 8.31517578 -15.890625 8.63671875 C-12.21870171 9.09819019 -10.14500561 8.23823511 -6.75 6.8125 C-5.69296875 6.38582031 -4.6359375 5.95914063 -3.546875 5.51953125 C-0.84675355 4.25996149 -0.84675355 4.25996149 -0.140625 1.82421875 C-0.07101562 0.92123047 -0.07101562 0.92123047 0 0 Z " fill="#E5E5E5" transform="translate(388,181)"/>
<path d="M0 0 C0.96421875 0.55429688 1.9284375 1.10859375 2.921875 1.6796875 C4.19788361 2.41151597 5.47392712 3.1432836 6.75 3.875 C7.70132813 4.42220703 7.70132813 4.42220703 8.671875 4.98046875 C11.74250368 6.7396831 14.80851875 8.46873374 18 10 C18.2475 9.0925 18.495 8.185 18.75 7.25 C20.03981342 3.89648511 21.31971042 2.32291764 24 0 C23.51675181 5.15464734 20.81389239 8.81550319 18 13 C11.56442169 9.82976438 5.17804317 6.65066187 -1 3 C-0.67 2.01 -0.34 1.02 0 0 Z " fill="#DDDDDD" transform="translate(97,174)"/>
<path d="M0 0 C7.11120489 1.31117661 14.04699943 3.01720516 21 5 C20 8 20 8 18 9 C16.45976004 9.06950541 14.91665012 9.08452357 13.375 9.0625 C12.14910156 9.04896484 12.14910156 9.04896484 10.8984375 9.03515625 C9.95871094 9.01775391 9.95871094 9.01775391 9 9 C9.99 8.01 10.98 7.02 12 6 C8.04 4.68 4.08 3.36 0 2 C0 1.34 0 0.68 0 0 Z " fill="#EDEDED" transform="translate(86,201)"/>
<path d="M0 0 C0.99 0 1.98 0 3 0 C3 4.29 3 8.58 3 13 C2.67 13 2.34 13 2 13 C1.67 10.69 1.34 8.38 1 6 C-2.04590486 9.60996132 -4.48823231 13.35392892 -6.8515625 17.42578125 C-7.42003906 18.20501953 -7.42003906 18.20501953 -8 19 C-8.66 19 -9.32 19 -10 19 C-9.05003199 14.54387578 -6.94073518 11.12665795 -4.625 7.25 C-4.22539062 6.55261719 -3.82578125 5.85523437 -3.4140625 5.13671875 C-2.36291209 3.3698179 -1.18905872 1.67719861 0 0 Z " fill="#E0E0E0" transform="translate(319,108)"/>
<path d="M0 0 C1.32 0.33 2.64 0.66 4 1 C3.67 1.66 3.34 2.32 3 3 C3.9075 3.28875 4.815 3.5775 5.75 3.875 C8.32202908 4.76531776 10.61346766 5.71494413 13 7 C13.33 5.68 13.66 4.36 14 3 C14.33 3 14.66 3 15 3 C15 4.98 15 6.96 15 9 C16.65 9.66 18.3 10.32 20 11 C20 11.66 20 12.32 20 13 C15.46893886 11.61111631 11.3852421 9.82221815 7.1875 7.625 C6.04667969 7.03976563 4.90585938 6.45453125 3.73046875 5.8515625 C1 4 1 4 0.11328125 1.7734375 C0.07589844 1.18820313 0.03851563 0.60296875 0 0 Z " fill="#E3E3E3" transform="translate(80,225)"/>
<path d="M0 0 C3.38266921 0.2818891 4.81072018 0.83064437 7.375 3.125 C9 6 9 6 8.9375 9.6875 C8 13 8 13 5 15 C4.34 14.34 3.68 13.68 3 13 C3.66 12.67 4.32 12.34 5 12 C5 9.36 5 6.72 5 4 C3.68 4 2.36 4 1 4 C0.67 4.66 0.34 5.32 0 6 C-0.66 6 -1.32 6 -2 6 C-1.34 4.02 -0.68 2.04 0 0 Z " fill="#CFCFCF" transform="translate(103,185)"/>
<path d="M0 0 C1.77706209 2.66559313 2.87548273 5.0280615 4 8 C5.98 8 7.96 8 10 8 C10 7.01 10 6.02 10 5 C10 4.34 10 3.68 10 3 C10.66 3 11.32 3 12 3 C12.99 4.98 13.98 6.96 15 9 C10.99062092 11.67291939 7.71069795 11.69300771 3 11 C0.9375 9.4375 0.9375 9.4375 0 7 C-0.1875 3.25 -0.1875 3.25 0 0 Z " fill="#E5E5E5" transform="translate(362,171)"/>
<path d="M0 0 C0.99 0 1.98 0 3 0 C3.48210937 1.13179688 3.96421875 2.26359375 4.4609375 3.4296875 C5.09870803 4.91156608 5.73674261 6.39333105 6.375 7.875 C6.85066406 8.99455078 6.85066406 8.99455078 7.3359375 10.13671875 C7.6453125 10.85214844 7.9546875 11.56757812 8.2734375 12.3046875 C8.55622559 12.96452637 8.83901367 13.62436523 9.13037109 14.30419922 C9.99050903 16.19486699 9.99050903 16.19486699 12 18 C10.68 18.33 9.36 18.66 8 19 C6.66042079 16.21128823 5.32941565 13.41856938 4 10.625 C3.6184375 9.8309375 3.236875 9.036875 2.84375 8.21875 C2.4828125 7.45820312 2.121875 6.69765625 1.75 5.9140625 C1.41484375 5.2123291 1.0796875 4.5105957 0.734375 3.78759766 C0 2 0 2 0 0 Z " fill="#E5E5E5" transform="translate(166,106)"/>
<path d="M0 0 C3.375 1.5 3.375 1.5 6 3 C5.67 4.98 5.34 6.96 5 9 C4.34 9 3.68 9 3 9 C2.79375 8.195625 2.5875 7.39125 2.375 6.5625 C1.21648601 3.729752 1.21648601 3.729752 -1.8125 2.9375 C-5.82003843 3.01607918 -7.17811965 4.26111613 -10 7 C-9.60856977 4.72970466 -9.11258722 3.16591802 -7.8125 1.25 C-5.08737145 -0.629399 -3.24971238 -0.3823191 0 0 Z " fill="#E5E5E5" transform="translate(290,94)"/>
<path d="M0 0 C2.88949684 0.31237804 4.58633099 0.64338879 6.8125 2.5625 C8.57502695 6.18031847 8.26259725 8.99539199 8 13 C7 14 7 14 4.4375 14.0625 C3.633125 14.041875 2.82875 14.02125 2 14 C2.33 13.01 2.66 12.02 3 11 C3.66 11 4.32 11 5 11 C5 9.02 5 7.04 5 5 C2.525 4.01 2.525 4.01 0 3 C0 2.01 0 1.02 0 0 Z " fill="#D0D0D0" transform="translate(395,217)"/>
<path d="M0 0 C1.90625 0.3828125 1.90625 0.3828125 4.40625 2.0078125 C6.28581836 4.98379573 6.22049507 6.92611668 5.90625 10.3828125 C4.91625 10.3828125 3.92625 10.3828125 2.90625 10.3828125 C2.9371875 8.92875 2.9371875 8.92875 2.96875 7.4453125 C3.26243499 4.50815355 3.26243499 4.50815355 1.90625 3.3828125 C-2.22675269 3.19057982 -6.03616601 3.60993936 -10.09375 4.3828125 C-7.11329133 0.40886761 -4.75388474 -0.26607564 0 0 Z " fill="#E2E2E2" transform="translate(366.09375,147.6171875)"/>
<path d="M0 0 C2 1 2 1 2.77783203 2.76586914 C3.01872559 3.51473389 3.25961914 4.26359863 3.5078125 5.03515625 C3.77207031 5.84404297 4.03632813 6.65292969 4.30859375 7.48632812 C4.71271484 8.7615332 4.71271484 8.7615332 5.125 10.0625 C5.40214844 10.91650391 5.67929688 11.77050781 5.96484375 12.65039062 C6.64997648 14.76485199 7.32801834 16.8813297 8 19 C7.01 19 6.02 19 5 19 C3.96772138 16.39985473 2.94894848 13.79573631 1.9375 11.1875 C1.64294922 10.44951172 1.34839844 9.71152344 1.04492188 8.95117188 C-1.11328125 3.33984375 -1.11328125 3.33984375 0 0 Z " fill="#E2E2E2" transform="translate(144,119)"/>
<path d="M0 0 C0.28875 0.61875 0.5775 1.2375 0.875 1.875 C1.93720042 4.13325765 1.93720042 4.13325765 4 6 C7.08347826 6.16681109 7.08347826 6.16681109 10 6 C10.66 4.68 11.32 3.36 12 2 C12.66 2 13.32 2 14 2 C13.25 6.75 13.25 6.75 11 9 C4.025 9.675 4.025 9.675 0.4375 7.3125 C-1 5 -1 5 -0.75 2.25 C-0.5025 1.5075 -0.255 0.765 0 0 Z " fill="#CDCDCD" transform="translate(206,103)"/>
<path d="M0 0 C0.33 0 0.66 0 1 0 C1 1.65 1 3.3 1 5 C4.63 5.33 8.26 5.66 12 6 C12 6.99 12 7.98 12 9 C10.041036 8.69147815 8.08284287 8.3780582 6.125 8.0625 C5.03445313 7.88847656 3.94390625 7.71445313 2.8203125 7.53515625 C0 7 0 7 -2 6 C-1.34 4.02 -0.68 2.04 0 0 Z " fill="#CFCFCF" transform="translate(261,104)"/>
<path d="M0 0 C0 2.31 0 4.62 0 7 C-3.77545388 5.90931332 -6.47043472 5.0916909 -9 2 C-3.375 0 -3.375 0 0 0 Z " fill="#181818" transform="translate(93,225)"/>
<path d="M0 0 C0.99 0.33 1.98 0.66 3 1 C3.34907695 4.75257718 3.27011863 6.56588078 1.25 9.8125 C-0.96538462 11.96634616 -1.98673462 12.67715014 -5 13 C-5.33 12.34 -5.66 11.68 -6 11 C-5.195625 10.67 -4.39125 10.34 -3.5625 10 C-0.87589576 8.31078867 -0.87589576 8.31078867 -0.4453125 6.01953125 C-0.2118705 4.02112624 -0.09883105 2.00956467 0 0 Z " fill="#CBCBCB" transform="translate(183,111)"/>
<path d="M0 0 C3.4069998 -0.38937141 4.76368298 -0.15388085 7.6875 1.75 C9.84664756 3.85079223 11.10842519 5.14696062 12 8 C11.625 10.25 11.625 10.25 11 12 C10.34 12 9.68 12 9 12 C8.6596875 10.63875 8.6596875 10.63875 8.3125 9.25 C6.80272992 5.51152172 5.25481657 4.2783716 2 2 C1.34 1.34 0.68 0.68 0 0 Z " fill="#CCCCCC" transform="translate(118,152)"/>
<path d="M0 0 C0.99 0.33 1.98 0.66 3 1 C2.505 1.350625 2.01 1.70125 1.5 2.0625 C-0.74153389 4.95781461 -0.19088797 7.43675791 0 11 C0 11.99 0 12.98 0 14 C-2.0625 12.4375 -2.0625 12.4375 -4 10 C-3.93541482 6.31864501 -3.78095253 3.96838114 -1.4375 1.0625 C-0.7259375 0.5365625 -0.7259375 0.5365625 0 0 Z " fill="#D3D3D3" transform="translate(355,152)"/>
<path d="M0 0 C2 1 2 1 3 3 C2.34 3 1.68 3 1 3 C1.33 3.886875 1.66 4.77375 2 5.6875 C2.91222143 8.70923347 3.18330958 10.88373706 3 14 C0.03472242 11.5546615 -0.55582214 9.55397653 -1.1875 5.8125 C-1.34605469 4.91144531 -1.50460937 4.01039063 -1.66796875 3.08203125 C-1.77753906 2.39496094 -1.88710938 1.70789063 -2 1 C-1.34 0.67 -0.68 0.34 0 0 Z " fill="#D0D0D0" transform="translate(377,202)"/>
<path d="M0 0 C1.58467728 0.28427417 3.1677057 0.57774818 4.75 0.875 C6.07257813 1.11863281 6.07257813 1.11863281 7.421875 1.3671875 C9.86947744 1.96796264 11.80599857 2.77997117 14 4 C14 4.66 14 5.32 14 6 C12.04096255 5.52372025 10.08278903 5.04388577 8.125 4.5625 C7.03445312 4.29566406 5.94390625 4.02882812 4.8203125 3.75390625 C2 3 2 3 0 2 C0 1.34 0 0.68 0 0 Z " fill="#DDDDDD" transform="translate(86,201)"/>
<path d="M0 0 C3 0 3 0 4.82421875 1.64453125 C5.43910156 2.35996094 6.05398438 3.07539063 6.6875 3.8125 C7.31011719 4.52019531 7.93273437 5.22789062 8.57421875 5.95703125 C10 8 10 8 10 11 C8.8944811 10.06409496 7.79064547 9.12620142 6.6875 8.1875 C6.07261719 7.66542969 5.45773437 7.14335937 4.82421875 6.60546875 C1.48047722 3.6626898 1.48047722 3.6626898 0 2 C0 1.34 0 0.68 0 0 Z " fill="#D9D9D9" transform="translate(337,145)"/>
<path d="M0 0 C1.485 0.99 1.485 0.99 3 2 C5.34360915 1.74889902 7.67968195 1.41434251 10 1 C10.99 1 11.98 1 13 1 C10.69287028 3.83954427 9.64024405 4.92160277 5.9375 5.375 C3 5 3 5 0 3 C0 2.01 0 1.02 0 0 Z " fill="#E2E2E2" transform="translate(279,111)"/>
<path d="M0 0 C0.33 1.32 0.66 2.64 1 4 C2.32 3.67 3.64 3.34 5 3 C4 6 4 6 1.625 7.1875 C-1 8 -1 8 -4 8 C-3.67 7.01 -3.34 6.02 -3 5 C-2.34 5 -1.68 5 -1 5 C-1.33 3.68 -1.66 2.36 -2 1 C-1.34 0.67 -0.68 0.34 0 0 Z " fill="#CCCCCC" transform="translate(196,110)"/>
<path d="M0 0 C0.66 0 1.32 0 2 0 C2 1.32 2 2.64 2 4 C2.99 4 3.98 4 5 4 C5 4.66 5 5.32 5 6 C2.03 6 -0.94 6 -4 6 C-4 5.01 -4 4.02 -4 3 C-2.68 3 -1.36 3 0 3 C0 2.01 0 1.02 0 0 Z " fill="#C8C8C8" transform="translate(248,104)"/>
<path d="M0 0 C0.66 0 1.32 0 2 0 C1.32902328 4.19360449 -0.8558394 7.40334352 -3 11 C-3.99 10.34 -4.98 9.68 -6 9 C-5.05016642 7.49460339 -4.08988109 5.99579653 -3.125 4.5 C-2.59132813 3.6646875 -2.05765625 2.829375 -1.5078125 1.96875 C-0.76144531 0.99421875 -0.76144531 0.99421875 0 0 Z " fill="#DEDEDE" transform="translate(329,114)"/>
<path d="M0 0 C0.66 0.66 1.32 1.32 2 2 C1.06027344 2.12955078 1.06027344 2.12955078 0.1015625 2.26171875 C-2.36782875 2.68626709 -4.64356842 3.14272416 -7 4 C-8.67613187 6.47014472 -8.67613187 6.47014472 -9 9 C-9.33 9 -9.66 9 -10 9 C-10.35882213 5.77060081 -10.27258004 4.38790237 -8.375 1.6875 C-5.35379564 -0.4591452 -3.63272373 -0.47383353 0 0 Z " fill="#EDEDED" transform="translate(119,150)"/>
<path d="M0 0 C1.45880109 0.14107747 2.91703551 0.28802415 4.375 0.4375 C5.59316406 0.55931641 5.59316406 0.55931641 6.8359375 0.68359375 C9 1 9 1 11 2 C11 2.66 11 3.32 11 4 C2.83035714 3.33035714 2.83035714 3.33035714 0 0 Z " fill="#E0E0E0" transform="translate(92,215)"/>
<path d="M0 0 C0.66 1.32 1.32 2.64 2 4 C-1.625 8.875 -1.625 8.875 -5 10 C-5 6.07176899 -3.48245551 4.93381106 -1 2 C-0.67 1.34 -0.34 0.68 0 0 Z " fill="#D9D9D9" transform="translate(342,130)"/>
<path d="M0 0 C0 0.66 0 1.32 0 2 C-3.63 2.33 -7.26 2.66 -11 3 C-10.67 2.01 -10.34 1.02 -10 0 C-6.33694766 -0.74926071 -3.57644848 -1.2380014 0 0 Z " fill="#CCCCCC" transform="translate(98,209)"/>
<path d="M0 0 C1.31223496 3.93670488 0.24296256 6.12488144 -1 10 C-1.66 10 -2.32 10 -3 10 C-3.36923077 4.58461538 -3.36923077 4.58461538 -1.5 1.625 C-1.005 1.08875 -0.51 0.5525 0 0 Z " fill="#E4E4E4" transform="translate(394,218)"/>
<path d="M0 0 C0.66 0.66 1.32 1.32 2 2 C-0.97 3.65 -3.94 5.3 -7 7 C-7.99 6.34 -8.98 5.68 -10 5 C-6.7 3.35 -3.4 1.7 0 0 Z " fill="#D0D0D0" transform="translate(170,126)"/>
<path d="M0 0 C0.99 0 1.98 0 3 0 C3 4.29 3 8.58 3 13 C2.67 13 2.34 13 2 13 C1.92652344 11.93458984 1.92652344 11.93458984 1.8515625 10.84765625 C1.73941406 9.46900391 1.73941406 9.46900391 1.625 8.0625 C1.55539062 7.14597656 1.48578125 6.22945313 1.4140625 5.28515625 C1.27742188 4.53105469 1.14078125 3.77695313 1 3 C0.34 2.67 -0.32 2.34 -1 2 C-0.67 1.34 -0.34 0.68 0 0 Z " fill="#DADADA" transform="translate(319,108)"/>
<path d="M0 0 C1.9375 0.375 1.9375 0.375 4 1 C5.35439668 3.70879335 5.06501451 6.00933268 5 9 C4.01 9 3.02 9 2 9 C2.04125 8.071875 2.0825 7.14375 2.125 6.1875 C2.27136339 2.84190281 2.27136339 2.84190281 0 0 Z " fill="#ECECEC" transform="translate(367,149)"/>
<path d="M0 0 C0.66 0 1.32 0 2 0 C1.46930939 3.82097239 0.50298434 6.06171403 -2 9 C-3 6 -3 6 -1.5625 2.8125 C-1.046875 1.884375 -0.53125 0.95625 0 0 Z " fill="#D9D9D9" transform="translate(312,104)"/>
<path d="M0 0 C0.66 0 1.32 0 2 0 C1.25 4.75 1.25 4.75 -1 7 C-4.625 7.125 -4.625 7.125 -8 7 C-8 6.67 -8 6.34 -8 6 C-7.05125 5.7525 -6.1025 5.505 -5.125 5.25 C-1.91306809 4.3142923 -1.91306809 4.3142923 -0.625 1.875 C-0.41875 1.25625 -0.2125 0.6375 0 0 Z " fill="#E8E8E8" transform="translate(218,105)"/>
<path d="M0 0 C2 1.125 2 1.125 4 3 C4.25 6.1875 4.25 6.1875 4 9 C1.47740939 7.02579865 1.0070192 6.03254358 0.3125 2.8125 C0.209375 1.884375 0.10625 0.95625 0 0 Z " fill="#D8D8D8" transform="translate(370,189)"/>
<path d="M0 0 C0.66 0 1.32 0 2 0 C2.99 1.98 3.98 3.96 5 6 C3.02 6.99 3.02 6.99 1 8 C0.03601353 5.1080406 0 3.0005625 0 0 Z " fill="#D7D7D7" transform="translate(372,174)"/>
<path d="M0 0 C2 1 2 1 2.6328125 2.84765625 C2.79523438 3.57855469 2.95765625 4.30945313 3.125 5.0625 C3.29257813 5.79597656 3.46015625 6.52945313 3.6328125 7.28515625 C3.75398437 7.85105469 3.87515625 8.41695312 4 9 C3.01 8.67 2.02 8.34 1 8 C-0.1875 4.4375 -0.1875 4.4375 -1 1 C-0.67 0.67 -0.34 0.34 0 0 Z " fill="#DADADA" transform="translate(144,119)"/>
<path d="M0 0 C1.98 0 3.96 0 6 0 C5.34 1.32 4.68 2.64 4 4 C2.68 3.67 1.36 3.34 0 3 C0 2.01 0 1.02 0 0 Z " fill="#CACACA" transform="translate(380,219)"/>
<path d="M0 0 C0.33 0 0.66 0 1 0 C1.36075949 4.44936709 1.36075949 4.44936709 -0.1875 6.8125 C-2.55982525 8.36678206 -4.22041345 8.22537188 -7 8 C-6.21625 7.4225 -5.4325 6.845 -4.625 6.25 C-2.19952756 4.17102363 -1.14305583 2.90959667 0 0 Z " fill="#EBEBEB" transform="translate(128,161)"/>
<path d="M0 0 C2.97 0.99 5.94 1.98 9 3 C8.01 3.66 7.02 4.32 6 5 C2.3125 3.625 2.3125 3.625 -1 2 C-0.67 1.34 -0.34 0.68 0 0 Z " fill="#D6D6D6" transform="translate(300,109)"/>
<path d="M0 0 C1.485 0.99 1.485 0.99 3 2 C3.6875 5.625 3.6875 5.625 4 9 C3.34 9 2.68 9 2 9 C1.34 6.03 0.68 3.06 0 0 Z " fill="#EAEAEA" transform="translate(192,102)"/>
<path d="M0 0 C1.32 0.33 2.64 0.66 4 1 C3.67 1.66 3.34 2.32 3 3 C4.32 3.66 5.64 4.32 7 5 C4.03 4.505 4.03 4.505 1 4 C0.67 2.68 0.34 1.36 0 0 Z " fill="#F6F6F6" transform="translate(80,225)"/>
<path d="M0 0 C0.66 0 1.32 0 2 0 C2.33 2.64 2.66 5.28 3 8 C2.34 8 1.68 8 1 8 C0.67 5.36 0.34 2.72 0 0 Z " fill="#C7C7C7" transform="translate(386,203)"/>
<path d="M0 0 C0.66 0.66 1.32 1.32 2 2 C-0.31 3.32 -2.62 4.64 -5 6 C-5.66 5.34 -6.32 4.68 -7 4 C-4.69 2.68 -2.38 1.36 0 0 Z " fill="#D3D3D3" transform="translate(162,119)"/>
<path d="M0 0 C2.31 0.33 4.62 0.66 7 1 C7 1.99 7 2.98 7 4 C4.69 3.67 2.38 3.34 0 3 C0 2.01 0 1.02 0 0 Z " fill="#B9B9B9" transform="translate(117,166)"/>
<path d="M0 0 C0.99 0.33 1.98 0.66 3 1 C0.6875 3.0625 0.6875 3.0625 -2 5 C-2.99 4.67 -3.98 4.34 -5 4 C-2.6875 1.9375 -2.6875 1.9375 0 0 Z " fill="#D6D6D6" transform="translate(182,119)"/>
</svg>
